<svg xmlns="http://www.w3.org/2000/svg" width="128" height="128" xml:space="preserve"><path fill="#2C3E50" d="M66.2 29.7V18c0-1.1-.9-2-2-2s-2 .9-2 2v11.7c-1.6.8-2.8 2.4-2.8 4.3 0 2.6 2.1 4.8 4.8 4.8S69 36.6 69 34c0-1.9-1.1-3.6-2.8-4.3zM96.2 29.7V18c0-1.1-.9-2-2-2s-2 .9-2 2v11.7c-1.6.8-2.8 2.4-2.8 4.3 0 2.6 2.1 4.8 4.8 4.8S99 36.6 99 34c0-1.9-1.1-3.6-2.8-4.3zM38.2 23h22v4h-22zM68.2 23h22v4h-22zM36.2 29.7V18c0-1.1-.9-2-2-2s-2 .9-2 2v11.7c-1.6.8-2.8 2.4-2.8 4.3 0 2.6 2.1 4.8 4.8 4.8S39 36.6 39 34c0-1.9-1.1-3.6-2.8-4.3z"/><path fill="#2C3E50" d="M111 23H98v4h13c3.3 0 6 2.7 6 6v11H11V33c0-3.3 2.7-6 6-6h13v-4H17c-5.5 0-10 4.5-10 10v66c0 5.5 4.5 10 10 10h94c5.5 0 10-4.5 10-10V33c0-5.5-4.5-10-10-10zm0 82H17c-3.3 0-6-2.7-6-6V48h106v51c0 3.3-2.7 6-6 6z"/><circle fill="#3B97D3" cx="51" cy="60" r="3.3"/><circle fill="#3B97D3" cx="38.8" cy="60" r="3.3"/><circle fill="#3B97D3" cx="99.8" cy="60" r="3.3"/><circle fill="#3B97D3" cx="26.6" cy="71.1" r="3.3"/><circle fill="#3B97D3" cx="38.8" cy="71.1" r="3.3"/><circle fill="#3B97D3" cx="51" cy="71.1" r="3.3"/><circle fill="#3B97D3" cx="63.2" cy="71.1" r="3.3"/><circle fill="#3B97D3" cx="75.4" cy="71.1" r="3.3"/><circle fill="#3B97D3" cx="87.5" cy="71.1" r="3.3"/><circle fill="#3B97D3" cx="38.8" cy="82.3" r="3.3"/><circle fill="#3B97D3" cx="51" cy="82.3" r="3.3"/><circle fill="#3B97D3" cx="63.2" cy="82.3" r="3.3"/><circle fill="#3B97D3" cx="75.4" cy="82.3" r="3.3"/><circle fill="#3B97D3" cx="87.5" cy="82.3" r="3.3"/><circle fill="#3B97D3" cx="63.2" cy="60.3" r="3.3"/><circle fill="#3B97D3" cx="75.4" cy="60.3" r="3.3"/><circle fill="#3B97D3" cx="87.5" cy="60.3" r="3.3"/><circle fill="#3B97D3" cx="99.7" cy="71.1" r="3.3"/><circle fill="#3B97D3" cx="99.8" cy="82.3" r="3.3"/><circle fill="#3B97D3" cx="26.6" cy="81.9" r="3.3"/><circle fill="#3B97D3" cx="26.6" cy="92.8" r="3.3"/><circle fill="#3B97D3" cx="38.8" cy="92.8" r="3.3"/><circle fill="#3B97D3" cx="51" cy="92.8" r="3.3"/><circle fill="#3B97D3" cx="63.2" cy="92.8" r="3.3"/></svg>